<svg width="470" height="449" viewBox="0 0 470 449" fill="none" xmlns="http://www.w3.org/2000/svg">
<path d="M270.344 142.692L18.33 297.597C15.322 299.483 14.476 303.255 16.45 306.128C17.014 306.936 17.766 307.565 18.612 308.104L188.752 402.484C194.11 405.447 200.69 405.267 205.86 402.124L455.712 248.746C458.72 246.95 459.566 243.089 457.686 240.305C457.122 239.497 456.37 238.778 455.524 238.329L281.624 142.423C278.146 140.447 273.822 140.627 270.344 142.692Z" fill="#E5E5E5"/>
<path d="M323.266 135.508L352.5 119.344V248.387L325.146 263.383L323.266 135.508Z" fill="#FFA75F"/>
<path d="M323.266 135.508L293.938 119.344L294.596 246.591L325.146 263.383L323.266 135.508Z" fill="#EF8A3F"/>
<path d="M293.938 119.344L323.266 103.001L352.5 119.344L323.266 135.508L293.938 119.344Z" fill="#FFB37B"/>
<path d="M270.626 187.053L299.86 170.889V277.302L272.224 292.209L270.626 187.053Z" fill="#68E1FD"/>
<path d="M270.626 187.053L241.298 170.889L241.862 275.237L272.224 292.209L270.626 187.053Z" fill="#68E1FD"/>
<path d="M241.298 170.889L270.626 154.546L299.86 170.889L270.626 187.053L241.298 170.889Z" fill="#68E1FD"/>
<path d="M270.626 187.053L299.86 170.889V277.302L272.224 292.209L270.626 187.053Z" fill="#68E1FD"/>
<path opacity="0.19" d="M270.626 187.053L241.298 170.889L241.862 275.237L272.224 292.209L270.626 187.053Z" fill="#662D91"/>
<path opacity="0.53" d="M241.298 170.889L270.626 154.546L299.86 170.889L270.626 187.053L241.298 170.889Z" fill="#E5E5E5"/>
<path d="M213.474 236.713L242.802 220.549L244.212 308.014L213.474 325.166V236.713Z" fill="#68E1FD"/>
<path d="M213.474 236.713L184.24 220.549V308.732L213.474 325.166V236.713Z" fill="#68E1FD"/>
<path opacity="0.19" d="M213.474 236.713L184.24 220.549V308.732L213.474 325.166V236.713Z" fill="#662D91"/>
<path d="M184.24 220.549L213.474 204.115L242.802 220.549L213.474 236.713L184.24 220.549Z" fill="#68E1FD"/>
<path opacity="0.53" d="M184.24 220.549L213.474 204.115L242.802 220.549L213.474 236.713L184.24 220.549Z" fill="#E5E5E5"/>
<path d="M153.502 294.185L182.736 278.021L183.77 340.971L153.502 357.404V294.185Z" fill="#ED7E7E"/>
<path d="M153.502 294.185L124.174 278.021V341.06L153.502 357.404V294.185Z" fill="#E26D6D"/>
<path d="M124.174 278.021L153.502 261.677L182.736 278.021L153.502 294.185L124.174 278.021Z" fill="#FC9D9D"/>
<path d="M65.988 288.348C65.988 288.348 65.236 310.798 77.738 311.606C90.24 312.414 93.812 297.956 93.53 288.348" fill="#68E1FD"/>
<path d="M79.712 295.532C87.3435 295.532 93.53 292.315 93.53 288.348C93.53 284.38 87.3435 281.164 79.712 281.164C72.0805 281.164 65.894 284.38 65.894 288.348C65.894 292.315 72.0805 295.532 79.712 295.532Z" fill="#662D91"/>
<path d="M76.328 286.462C76.328 286.462 86.668 278.38 82.344 273.531C78.02 268.682 73.884 269.31 75.482 264.551C77.08 259.791 84.506 257.367 78.584 251.979C72.662 246.591 67.774 250.273 68.62 243.358C69.466 236.443 66.082 229.708 59.972 232.492C53.862 235.276 53.862 246.681 58.186 249.375C62.51 252.069 69.372 252.607 63.45 256.559C57.528 260.51 52.452 261.049 58.092 267.155C63.732 273.261 73.414 270.298 71.064 275.596C68.714 280.894 70.124 282.96 76.328 286.462Z" fill="#31BE44"/>
<path d="M76.986 287.54C76.986 287.54 90.334 287.989 90.428 281.703C90.522 275.417 87.044 273.261 91.462 270.567C95.88 267.873 103.212 270.927 102.554 263.114C101.896 255.301 95.692 255.032 101.144 250.362C106.596 245.693 108.758 238.599 102.178 236.713C95.598 234.827 87.796 243.358 89.112 248.207C90.428 253.056 95.222 257.816 88.078 256.918C80.934 256.02 76.61 253.326 76.798 261.498C76.986 269.669 86.104 273.621 80.652 276.045C75.2 278.47 74.73 281.074 76.986 287.54Z" fill="#31BE44"/>
<path d="M77.738 287.54C77.738 287.54 72.85 273.172 63.826 275.417C54.802 277.662 77.738 287.54 77.738 287.54Z" fill="#31BE44"/>
<path d="M82.344 152.48V233.839C82.344 237.701 85.634 240.844 89.676 240.844C91.086 240.844 92.402 240.484 93.53 239.766L227.104 159.575C233.966 155.444 238.102 148.26 238.102 140.627V71.4808C238.102 67.6194 234.812 64.4764 230.77 64.4764C229.454 64.4764 228.232 64.8356 227.104 65.4642C197.682 81.6282 117.876 125.63 89.3 141.255C84.976 143.411 82.344 147.721 82.344 152.48Z" fill="#FC9D9D"/>
<path d="M105.468 216.957L104.998 216.238C106.032 215.071 128.404 176.726 136.958 161.999L137.146 161.73L181.326 167.657L208.398 108.927L209.244 109.287L181.89 168.644L137.71 162.718C128.028 179.061 106.314 216.508 105.468 216.957Z" fill="#662D91"/>
<path d="M208.774 112.789C210.28 112.789 211.5 111.422 211.5 109.736C211.5 108.049 210.28 106.682 208.774 106.682C207.268 106.682 206.048 108.049 206.048 109.736C206.048 111.422 207.268 112.789 208.774 112.789Z" fill="#662D91"/>
<path d="M208.774 113.238C206.8 113.507 204.92 112.07 204.732 110.185C204.45 108.299 205.954 106.503 207.928 106.323C209.902 106.054 211.782 107.491 211.97 109.376C211.97 109.556 211.97 109.646 211.97 109.825C212.064 111.532 210.654 113.148 208.774 113.238ZM208.774 107.131C207.27 106.862 205.86 107.85 205.578 109.287C205.296 110.723 206.33 112.07 207.834 112.34C209.338 112.609 210.748 111.621 211.03 110.185C211.03 110.005 211.03 109.915 211.03 109.736C211.124 108.389 210.09 107.311 208.774 107.131Z" fill="#662D91"/>
<path d="M180.668 169.991C182.174 169.991 183.394 168.624 183.394 166.938C183.394 165.252 182.174 163.885 180.668 163.885C179.162 163.885 177.942 165.252 177.942 166.938C177.942 168.624 179.162 169.991 180.668 169.991Z" fill="#662D91"/>
<path d="M180.668 170.44C178.694 170.62 176.814 169.273 176.626 167.387C176.438 165.501 177.848 163.705 179.822 163.526C181.796 163.346 183.676 164.693 183.864 166.579C183.864 166.759 183.864 166.848 183.864 167.028C184.052 168.824 182.548 170.351 180.668 170.44ZM180.668 164.424C179.164 164.154 177.754 165.142 177.566 166.579C177.284 168.016 178.318 169.363 179.822 169.542C181.326 169.812 182.736 168.824 182.924 167.387C182.924 167.208 182.924 167.118 182.924 166.938C183.112 165.681 182.078 164.514 180.668 164.424Z" fill="#662D91"/>
<path d="M137.24 165.861C138.746 165.861 139.966 164.494 139.966 162.807C139.966 161.121 138.746 159.754 137.24 159.754C135.734 159.754 134.514 161.121 134.514 162.807C134.514 164.494 135.734 165.861 137.24 165.861Z" fill="#662D91"/>
<path d="M137.24 166.31C135.266 166.489 133.386 165.142 133.198 163.256C133.01 161.371 134.42 159.575 136.394 159.395C138.368 159.215 140.248 160.562 140.436 162.448C140.436 162.628 140.436 162.718 140.436 162.897C140.624 164.603 139.12 166.22 137.24 166.31ZM137.24 160.203C135.736 159.934 134.326 160.922 134.138 162.358C133.856 163.795 134.89 165.142 136.394 165.322C137.898 165.591 139.308 164.603 139.496 163.167C139.496 162.987 139.496 162.897 139.496 162.718C139.684 161.46 138.65 160.383 137.24 160.203Z" fill="#662D91"/>
<path d="M106.784 219.651C108.29 219.651 109.51 218.284 109.51 216.598C109.51 214.911 108.29 213.544 106.784 213.544C105.278 213.544 104.058 214.911 104.058 216.598C104.058 218.284 105.278 219.651 106.784 219.651Z" fill="#662D91"/>
<path d="M106.784 220.1C104.81 220.279 102.93 218.932 102.742 217.047C102.554 215.161 103.964 213.365 105.938 213.185C107.912 213.006 109.792 214.353 109.98 216.238C109.98 216.418 109.98 216.508 109.98 216.687C110.168 218.394 108.664 219.92 106.784 220.1ZM106.784 213.993C105.28 213.724 103.87 214.712 103.682 216.149C103.4 217.585 104.434 218.932 105.938 219.112C107.442 219.381 108.852 218.394 109.04 216.957C109.04 216.777 109.04 216.687 109.04 216.508C109.228 215.251 108.194 214.083 106.784 213.993Z" fill="#662D91"/>
<path d="M329.752 101.115C329.752 101.115 327.778 96.8044 327.308 96.8044C326.838 96.8044 313.584 97.2534 313.584 97.2534L319.788 106.054" fill="#662D91"/>
<path d="M349.398 132.186C348.646 131.647 347.988 132.904 348.646 133.353C349.304 133.802 345.826 135.688 345.45 135.867L341.408 138.023C340.562 138.472 341.314 139.639 342.16 139.19L346.014 137.214C347.048 136.765 348.082 136.227 348.928 135.598C350.056 134.7 350.714 133.084 349.398 132.186Z" fill="#31BE44"/>
<path d="M345.544 138.831C345.544 138.831 346.202 145.117 347.894 147.362C349.586 149.607 353.346 151.133 353.158 152.391C352.97 153.648 352.876 154.366 350.808 154.366C348.74 154.366 342.348 150.774 342.348 150.774L341.032 146.105L340.374 150.684L338.776 150.056V138.202L345.544 138.831Z" fill="#68E1FD"/>
<path d="M334.358 144.039C334.358 144.039 335.016 150.325 336.708 152.48C338.4 154.636 342.16 156.252 341.972 157.509C341.784 158.766 341.69 159.485 339.622 159.485C337.554 159.485 331.162 155.893 331.162 155.893L329.846 151.223L329.188 155.803L327.59 155.174V143.321L334.358 144.039Z" fill="#68E1FD"/>
<path d="M337.648 144.039C341.972 145.296 346.578 144.219 349.774 141.166C350.62 132.455 351.654 117.997 350.056 115.034C347.706 110.813 329.658 101.025 329.658 101.025L318.566 105.425L338.682 123.834L337.648 144.039Z" fill="#662D91"/>
<path d="M308.226 95.0084C308.226 95.0084 304.09 109.556 307.756 112.789C311.422 116.022 325.052 124.283 325.052 124.283V149.337C328.906 150.954 333.324 149.876 335.956 146.733L340.468 122.846L323.172 102.911" fill="#662D91"/>
<path d="M341.314 46.247L340.938 46.9654L340.75 46.8756C341.032 45.8878 341.22 44.9 341.502 43.9122C341.784 42.9244 340.28 42.8346 340.092 43.7326C339.904 44.6306 339.622 45.4388 339.434 46.3368L338.964 46.1572L339.152 42.4754V41.8468C339.246 41.4876 338.964 41.1284 338.588 41.0386C338.212 40.9488 337.836 41.2182 337.648 41.5774C337.554 41.6672 337.554 41.757 337.46 41.9366C337.272 43.2836 337.084 44.6306 336.99 46.0674H336.802C336.708 45.1694 336.614 44.2714 336.426 43.4632C336.426 43.3734 336.332 43.1938 336.238 43.104C336.05 42.3856 334.828 42.5652 334.828 43.3734L335.11 47.6838C334.828 46.9654 334.452 46.3368 333.7 46.1572C333.324 46.0674 332.948 46.3368 332.854 46.7858C332.854 46.8756 332.854 47.0552 332.948 47.145C333.512 48.1328 333.888 49.2104 334.264 50.3778L334.64 56.8434C334.64 57.1128 334.922 57.3822 335.204 57.3822C335.298 57.7414 335.674 58.0108 336.05 57.921C336.332 57.8312 336.52 57.6516 336.614 57.2924C336.896 57.6516 337.46 57.8312 337.742 57.3822V57.2924C338.024 57.8312 339.058 57.8312 339.152 57.1128C339.246 55.7658 339.34 54.4188 339.34 53.1616V53.0718C340.374 50.9166 341.502 48.8512 342.63 46.7858C343.1 45.9776 341.784 45.5286 341.314 46.247Z" fill="#FFB37B"/>
<path d="M341.126 47.5042C339.81 46.1572 338.024 45.5286 336.144 45.798C336.05 45.798 336.05 45.8878 336.05 45.9776L336.144 46.0674C337.836 45.798 339.622 46.3368 340.844 47.594C341.032 47.7736 341.314 47.594 341.126 47.5042Z" fill="#662D91"/>
<path d="M335.58 47.594C335.298 47.594 335.298 47.9532 335.58 48.043C336.99 48.3124 337.93 49.6594 337.742 51.0064C337.742 51.0962 337.93 51.186 338.024 51.186C338.118 51.186 338.212 51.0962 338.212 51.0064C338.4 49.39 337.272 47.8634 335.58 47.594Z" fill="#662D91"/>
<path d="M324.3 72.4686C324.3 72.4686 330.128 69.7746 331.256 66.1826C332.384 62.5906 333.512 51.186 333.512 51.186C336.238 51.0064 338.964 51.5452 341.314 52.8024C341.314 52.8024 340.844 66.7214 338.682 70.942C336.52 75.1626 329.752 80.82 329.94 80.82C330.128 80.82 327.872 98.2412 327.872 98.2412C327.872 98.2412 316.404 101.294 309.918 98.2412C309.918 98.2412 311.798 81.4486 313.208 79.024C314.618 76.5994 324.3 72.4686 324.3 72.4686Z" fill="#68E1FD"/>
<path d="M328.906 103.629C327.872 102.731 326.744 102.013 325.522 101.294L322.232 99.9474C321.292 99.0494 320.352 98.1514 319.506 97.2534C318.848 96.6248 317.908 97.5228 318.472 98.2412C319.036 98.9596 319.882 99.678 320.634 100.396C320.446 100.486 320.258 100.666 320.164 100.935C319.788 100.845 319.412 101.025 319.318 101.384C319.224 101.294 319.036 101.294 318.848 101.294C318.284 100.756 317.25 101.384 317.72 102.103C318.754 103.719 319.788 105.335 320.634 107.042C321.104 107.85 322.326 107.131 321.856 106.323L321.48 105.605C322.326 106.413 323.078 107.221 323.736 108.119C324.3 108.838 325.522 108.119 324.958 107.401C324.77 107.131 324.488 106.862 324.3 106.593C324.676 106.862 325.052 107.221 325.334 107.491C325.616 107.76 325.992 108.209 326.274 108.568C326.744 109.197 327.872 108.389 327.402 107.76L327.308 107.58C326.838 107.042 325.898 105.964 325.428 105.425C325.992 105.874 327.12 106.772 327.778 107.221C328.436 107.67 329.188 106.593 328.53 106.054C328.06 105.784 326.462 104.078 325.992 103.719C325.522 103.36 326.368 104.168 325.992 103.719C326.65 103.988 327.402 104.258 328.06 104.527C328.718 104.797 329.47 104.078 328.906 103.629Z" fill="#FFB37B"/>
<path d="M320.258 73.7258C320.258 73.7258 311.516 76.4198 309.73 78.8444C307.944 81.269 304.56 89.351 304.466 91.9552C304.372 94.5594 316.968 104.258 316.968 104.258C316.968 104.258 324.018 99.9474 324.582 98.9596C325.146 97.9718 316.31 90.0694 316.31 90.0694" fill="#68E1FD"/>
<path d="M315.652 61.064C315.652 61.064 310.576 63.758 310.482 73.636C310.482 73.636 309.824 79.1138 311.892 80.9098C313.96 82.7058 318.754 82.616 319.036 80.9098C319.318 79.2036 316.78 67.8888 316.78 67.8888" fill="#662D91"/>
<path d="M325.616 63.6682C325.616 63.6682 327.872 78.3954 325.804 79.5628C323.736 80.7302 320.446 80.371 321.668 73.636" fill="#662D91"/>
<path d="M325.616 63.6682C325.616 63.6682 327.026 74.983 321.95 75.3422C316.216 75.7014 314.618 71.7502 315.088 69.3256C315.558 66.901 317.814 60.166 325.616 63.6682Z" fill="#FFB37B"/>
<path d="M316.78 67.8888C316.78 67.8888 318.848 68.7868 319.506 66.2724C320.164 66.901 321.198 66.9908 321.95 66.5418C322.514 66.1826 322.984 65.7336 323.36 65.2846C323.36 65.2846 323.924 66.5418 326.18 65.8234C328.436 65.105 328.812 62.2314 324.488 60.2558C320.164 58.2802 313.96 59.9864 312.832 65.2846C311.704 70.5828 312.832 73.7258 317.344 74.8932C316.686 72.5584 316.498 70.2236 316.78 67.8888Z" fill="#662D91"/>
<path d="M322.232 95.7268C321.01 94.4696 319.506 93.3022 318.378 91.8654C316.874 90.1592 316.686 87.7346 317.814 85.759C317.062 86.0284 316.498 86.5672 316.122 87.2856C315.464 88.8122 315.746 90.5184 316.968 91.6858C318.848 94.0206 320.916 96.1758 323.078 98.1514C323.36 98.4208 323.83 98.4208 324.112 98.0616C324.206 97.9718 324.206 97.882 324.3 97.7922C323.548 97.1636 322.89 96.3554 322.232 95.7268Z" fill="#662D91"/>
<path opacity="0.19" d="M339.058 116.56C335.956 113.687 332.666 110.993 329.47 108.209C328.812 107.58 327.778 108.568 328.436 109.197L336.144 115.932C337.084 116.65 337.93 117.458 338.776 118.267C340.844 120.691 339.998 123.026 339.528 125.81C338.588 132.186 337.554 138.561 336.52 144.937C336.426 145.835 337.742 146.194 337.93 145.296C339.152 137.753 340.938 130.03 341.502 122.397C341.878 120.063 340.938 117.907 339.058 116.56Z" fill="#662D91"/>
</svg>
